<?xml version="1.0" encoding="utf-8" standalone="no"?>
<!DOCTYPE svg PUBLIC "-//W3C//DTD SVG 1.1//EN"
  "http://www.w3.org/Graphics/SVG/1.1/DTD/svg11.dtd">
<svg xmlns:xlink="http://www.w3.org/1999/xlink" width="576pt" height="576pt" viewBox="0 0 576 576" xmlns="http://www.w3.org/2000/svg" version="1.1">
 <metadata>
  <rdf:RDF xmlns:dc="http://purl.org/dc/elements/1.1/" xmlns:cc="http://creativecommons.org/ns#" xmlns:rdf="http://www.w3.org/1999/02/22-rdf-syntax-ns#">
   <cc:Work>
    <dc:type rdf:resource="http://purl.org/dc/dcmitype/StillImage"/>
    <dc:date>2023-10-29T02:30:10.977557</dc:date>
    <dc:format>image/svg+xml</dc:format>
    <dc:creator>
     <cc:Agent>
      <dc:title>Matplotlib v3.8.0, https://matplotlib.org/</dc:title>
     </cc:Agent>
    </dc:creator>
   </cc:Work>
  </rdf:RDF>
 </metadata>
 <defs>
  <style type="text/css">*{stroke-linejoin: round; stroke-linecap: butt}</style>
 </defs>
 <g id="figure_1">
  <g id="axes_1">
   <g id="PathCollection_1">
    <defs>
     <path id="C0_0_c20f27879a" d="M 0 0 
C 0 0 0 0 0 0 
C 0 0 0 0 0 -0 
C 0 -0 0 -0 0 -0 
C 0 -0 0 -0 0 -0 
C 0 0 0 0 0 0 
C 0 0 0 0 0 0 
C 0 0 0 0 0 0 
C 0 0 0 0 0 0 
z
"/>
    </defs>
    <g clip-path="url(#p0fc3b0cbcb)">
     <use xlink:href="#C0_0_c20f27879a" x="118.561509" y="315.13579" style="fill: #ff0000; fill-opacity: 0.5"/>
    </g>
    <g clip-path="url(#p0fc3b0cbcb)">
     <use xlink:href="#C0_0_c20f27879a" x="158.677641" y="334.312263" style="fill: #ff0000; fill-opacity: 0.5"/>
    </g>
   </g>
   <g id="line2d_1">
    <path d="M 118.561509 315.13579 
L 119.910207 316.099729 
L 121.224783 318.127638 
L 123.275666 323.583896 
L 123.785693 324.181811 
L 124.419635 324.581936 
L 125.28704 324.688788 
L 126.499252 324.329585 
L 127.161928 323.504326 
L 129.105058 320.589774 
L 130.29572 319.571273 
L 131.809638 318.909702 
L 133.23915 318.784662 
L 134.589644 319.050655 
L 135.764142 319.664484 
L 136.769829 320.587501 
L 149.5654 335.305757 
L 150.835079 335.887758 
L 151.822808 335.86275 
L 153.16073 335.526281 
L 155.888656 334.598717 
L 158.677641 334.312263 
" clip-path="url(#p0fc3b0cbcb)" style="fill: none; stroke: #ff0000; stroke-opacity: 0.5; stroke-width: 4; stroke-linecap: square"/>
   </g>
  </g>
 </g>
 <defs>
  <clipPath id="p0fc3b0cbcb">
   <rect x="0" y="85.281828" width="576" height="405.436345"/>
  </clipPath>
 </defs>
</svg>
