<?xml version="1.0" encoding="utf-8" standalone="no"?>
<!DOCTYPE svg PUBLIC "-//W3C//DTD SVG 1.1//EN"
  "http://www.w3.org/Graphics/SVG/1.1/DTD/svg11.dtd">
<svg xmlns:xlink="http://www.w3.org/1999/xlink" width="576pt" height="576pt" viewBox="0 0 576 576" xmlns="http://www.w3.org/2000/svg" version="1.1">
 <metadata>
  <rdf:RDF xmlns:dc="http://purl.org/dc/elements/1.1/" xmlns:cc="http://creativecommons.org/ns#" xmlns:rdf="http://www.w3.org/1999/02/22-rdf-syntax-ns#">
   <cc:Work>
    <dc:type rdf:resource="http://purl.org/dc/dcmitype/StillImage"/>
    <dc:date>2023-10-29T02:30:17.074231</dc:date>
    <dc:format>image/svg+xml</dc:format>
    <dc:creator>
     <cc:Agent>
      <dc:title>Matplotlib v3.8.0, https://matplotlib.org/</dc:title>
     </cc:Agent>
    </dc:creator>
   </cc:Work>
  </rdf:RDF>
 </metadata>
 <defs>
  <style type="text/css">*{stroke-linejoin: round; stroke-linecap: butt}</style>
 </defs>
 <g id="figure_1">
  <g id="axes_1">
   <g id="PathCollection_1">
    <defs>
     <path id="C0_0_ae0ff1f7a2" d="M 0 0 
C 0 0 0 0 0 0 
C 0 0 0 0 0 -0 
C 0 -0 0 -0 0 -0 
C 0 -0 0 -0 0 -0 
C 0 0 0 0 0 0 
C 0 0 0 0 0 0 
C 0 0 0 0 0 0 
C 0 0 0 0 0 0 
z
"/>
    </defs>
    <g clip-path="url(#p312d2b04ac)">
     <use xlink:href="#C0_0_ae0ff1f7a2" x="250.220293" y="126.324255" style="fill: #ff0000; fill-opacity: 0.5"/>
    </g>
    <g clip-path="url(#p312d2b04ac)">
     <use xlink:href="#C0_0_ae0ff1f7a2" x="308.837474" y="123.641595" style="fill: #ff0000; fill-opacity: 0.5"/>
    </g>
   </g>
   <g id="line2d_1">
    <path d="M 250.220293 126.324255 
L 266.954205 121.281763 
L 269.146962 120.920286 
L 270.729123 121.07488 
L 272.085004 121.522748 
L 273.349297 122.152491 
L 274.5651 123.352868 
L 275.660581 124.773768 
L 277.840766 128.649985 
L 279.214606 129.734416 
L 280.417839 130.168643 
L 281.791679 130.289136 
L 285.523496 130.359612 
L 289.578569 129.898104 
L 292.845256 128.96372 
L 296.514217 127.431421 
L 299.998204 125.928676 
L 308.837474 123.641595 
" clip-path="url(#p312d2b04ac)" style="fill: none; stroke: #ff0000; stroke-opacity: 0.5; stroke-width: 4; stroke-linecap: square"/>
   </g>
  </g>
 </g>
 <defs>
  <clipPath id="p312d2b04ac">
   <rect x="0" y="85.281828" width="576" height="405.436345"/>
  </clipPath>
 </defs>
</svg>
