<?xml version="1.0" encoding="utf-8" standalone="no"?>
<!DOCTYPE svg PUBLIC "-//W3C//DTD SVG 1.1//EN"
  "http://www.w3.org/Graphics/SVG/1.1/DTD/svg11.dtd">
<svg xmlns:xlink="http://www.w3.org/1999/xlink" width="576pt" height="576pt" viewBox="0 0 576 576" xmlns="http://www.w3.org/2000/svg" version="1.1">
 <metadata>
  <rdf:RDF xmlns:dc="http://purl.org/dc/elements/1.1/" xmlns:cc="http://creativecommons.org/ns#" xmlns:rdf="http://www.w3.org/1999/02/22-rdf-syntax-ns#">
   <cc:Work>
    <dc:type rdf:resource="http://purl.org/dc/dcmitype/StillImage"/>
    <dc:date>2023-10-29T02:30:14.236877</dc:date>
    <dc:format>image/svg+xml</dc:format>
    <dc:creator>
     <cc:Agent>
      <dc:title>Matplotlib v3.8.0, https://matplotlib.org/</dc:title>
     </cc:Agent>
    </dc:creator>
   </cc:Work>
  </rdf:RDF>
 </metadata>
 <defs>
  <style type="text/css">*{stroke-linejoin: round; stroke-linecap: butt}</style>
 </defs>
 <g id="figure_1">
  <g id="axes_1">
   <g id="PathCollection_1">
    <defs>
     <path id="C0_0_88a18b46a9" d="M 0 0 
C 0 0 0 0 0 0 
C 0 0 0 0 0 -0 
C 0 -0 0 -0 0 -0 
C 0 -0 0 -0 0 -0 
C 0 0 0 0 0 0 
C 0 0 0 0 0 0 
C 0 0 0 0 0 0 
C 0 0 0 0 0 0 
z
"/>
    </defs>
    <g clip-path="url(#pbf569cec8f)">
     <use xlink:href="#C0_0_88a18b46a9" x="286.37833" y="195.727857" style="fill: #ff0000; fill-opacity: 0.5"/>
    </g>
    <g clip-path="url(#pbf569cec8f)">
     <use xlink:href="#C0_0_88a18b46a9" x="304.918887" y="220.185533" style="fill: #ff0000; fill-opacity: 0.5"/>
    </g>
   </g>
   <g id="line2d_1">
    <path d="M 286.37833 195.727857 
L 287.037414 196.903226 
L 287.703682 197.942188 
L 293.430709 207.104155 
L 294.71296 209.125244 
L 295.828195 210.855332 
L 297.295421 212.574053 
L 298.802155 213.849454 
L 300.246034 214.908877 
L 301.740198 215.872816 
L 302.894942 216.789013 
L 303.629452 217.316451 
L 304.225681 217.950741 
L 304.732116 218.926047 
L 304.918887 220.185533 
" clip-path="url(#pbf569cec8f)" style="fill: none; stroke: #ff0000; stroke-opacity: 0.5; stroke-width: 4; stroke-linecap: square"/>
   </g>
  </g>
 </g>
 <defs>
  <clipPath id="pbf569cec8f">
   <rect x="0" y="85.281828" width="576" height="405.436345"/>
  </clipPath>
 </defs>
</svg>
