<?xml version="1.0" encoding="utf-8" standalone="no"?>
<!DOCTYPE svg PUBLIC "-//W3C//DTD SVG 1.1//EN"
  "http://www.w3.org/Graphics/SVG/1.1/DTD/svg11.dtd">
<svg xmlns:xlink="http://www.w3.org/1999/xlink" width="576pt" height="576pt" viewBox="0 0 576 576" xmlns="http://www.w3.org/2000/svg" version="1.1">
 <metadata>
  <rdf:RDF xmlns:dc="http://purl.org/dc/elements/1.1/" xmlns:cc="http://creativecommons.org/ns#" xmlns:rdf="http://www.w3.org/1999/02/22-rdf-syntax-ns#">
   <cc:Work>
    <dc:type rdf:resource="http://purl.org/dc/dcmitype/StillImage"/>
    <dc:date>2023-10-29T02:30:14.911768</dc:date>
    <dc:format>image/svg+xml</dc:format>
    <dc:creator>
     <cc:Agent>
      <dc:title>Matplotlib v3.8.0, https://matplotlib.org/</dc:title>
     </cc:Agent>
    </dc:creator>
   </cc:Work>
  </rdf:RDF>
 </metadata>
 <defs>
  <style type="text/css">*{stroke-linejoin: round; stroke-linecap: butt}</style>
 </defs>
 <g id="figure_1">
  <g id="axes_1">
   <g id="PathCollection_1">
    <defs>
     <path id="C0_0_9cb2093c5d" d="M 0 0 
C 0 0 0 0 0 0 
C 0 0 0 0 0 -0 
C 0 -0 0 -0 0 -0 
C 0 -0 0 -0 0 -0 
C 0 0 0 0 0 0 
C 0 0 0 0 0 0 
C 0 0 0 0 0 0 
C 0 0 0 0 0 0 
z
"/>
    </defs>
    <g clip-path="url(#p8aef2e5e83)">
     <use xlink:href="#C0_0_9cb2093c5d" x="158.681233" y="334.325904" style="fill: #ff0000; fill-opacity: 0.5"/>
    </g>
    <g clip-path="url(#p8aef2e5e83)">
     <use xlink:href="#C0_0_9cb2093c5d" x="211.637833" y="304.850743" style="fill: #ff0000; fill-opacity: 0.5"/>
    </g>
   </g>
   <g id="line2d_1">
    <path d="M 158.681233 334.325904 
L 160.478899 334.603264 
L 160.893744 334.560068 
L 163.997007 334.230419 
L 165.507333 334.02581 
L 167.313978 333.446082 
L 168.835079 332.466229 
L 170.171206 331.181735 
L 172.484286 328.342208 
L 174.79557 326.557557 
L 176.645316 325.632266 
L 179.265489 324.554655 
L 180.96079 323.474771 
L 187.4349 316.847691 
L 189.130201 315.9224 
L 190.827297 314.99711 
L 192.677043 314.687922 
L 199.93056 314.72657 
L 202.509428 313.80128 
L 204.707573 312.107567 
L 209.849147 306.014745 
L 211.637833 304.850743 
" clip-path="url(#p8aef2e5e83)" style="fill: none; stroke: #ff0000; stroke-opacity: 0.5; stroke-width: 4; stroke-linecap: square"/>
   </g>
  </g>
 </g>
 <defs>
  <clipPath id="p8aef2e5e83">
   <rect x="0" y="85.281828" width="576" height="405.436345"/>
  </clipPath>
 </defs>
</svg>
