<?xml version="1.0" encoding="utf-8" standalone="no"?>
<!DOCTYPE svg PUBLIC "-//W3C//DTD SVG 1.1//EN"
  "http://www.w3.org/Graphics/SVG/1.1/DTD/svg11.dtd">
<svg xmlns:xlink="http://www.w3.org/1999/xlink" width="576pt" height="576pt" viewBox="0 0 576 576" xmlns="http://www.w3.org/2000/svg" version="1.1">
 <metadata>
  <rdf:RDF xmlns:dc="http://purl.org/dc/elements/1.1/" xmlns:cc="http://creativecommons.org/ns#" xmlns:rdf="http://www.w3.org/1999/02/22-rdf-syntax-ns#">
   <cc:Work>
    <dc:type rdf:resource="http://purl.org/dc/dcmitype/StillImage"/>
    <dc:date>2023-10-29T02:30:23.048365</dc:date>
    <dc:format>image/svg+xml</dc:format>
    <dc:creator>
     <cc:Agent>
      <dc:title>Matplotlib v3.8.0, https://matplotlib.org/</dc:title>
     </cc:Agent>
    </dc:creator>
   </cc:Work>
  </rdf:RDF>
 </metadata>
 <defs>
  <style type="text/css">*{stroke-linejoin: round; stroke-linecap: butt}</style>
 </defs>
 <g id="figure_1">
  <g id="axes_1">
   <g id="PathCollection_1">
    <defs>
     <path id="C0_0_218f9fd5a2" d="M 0 0 
C 0 0 0 0 0 0 
C 0 0 0 0 0 -0 
C 0 -0 0 -0 0 -0 
C 0 -0 0 -0 0 -0 
C 0 0 0 0 0 0 
C 0 0 0 0 0 0 
C 0 0 0 0 0 0 
C 0 0 0 0 0 0 
z
"/>
    </defs>
    <g clip-path="url(#p3fd4a07d8b)">
     <use xlink:href="#C0_0_218f9fd5a2" x="353.678539" y="57.384435" style="fill: #ff0000; fill-opacity: 0.5"/>
    </g>
    <g clip-path="url(#p3fd4a07d8b)">
     <use xlink:href="#C0_0_218f9fd5a2" x="332.507034" y="35.129723" style="fill: #ff0000; fill-opacity: 0.5"/>
    </g>
   </g>
   <g id="line2d_1">
    <path d="M 353.678539 57.384435 
L 357.530679 48.754454 
L 357.839569 47.519975 
L 357.936546 46.367341 
L 357.685124 45.36248 
L 357.069141 44.746377 
L 356.144268 44.591783 
L 355.219395 44.746377 
L 353.315774 45.512527 
L 351.900629 45.769426 
L 349.381024 46.171825 
L 346.850644 46.14909 
L 345.035019 45.364753 
L 343.294822 43.548274 
L 341.671356 42.002334 
L 339.182281 41.186169 
L 335.870697 40.610989 
L 334.32625 39.767542 
L 333.5217 38.546704 
L 332.639928 36.798428 
L 332.507034 35.129723 
" clip-path="url(#p3fd4a07d8b)" style="fill: none; stroke: #ff0000; stroke-opacity: 0.5; stroke-width: 4; stroke-linecap: square"/>
   </g>
  </g>
 </g>
 <defs>
  <clipPath id="p3fd4a07d8b">
   <rect x="0" y="85.281828" width="576" height="405.436345"/>
  </clipPath>
 </defs>
</svg>
