<?xml version="1.0" encoding="utf-8" standalone="no"?>
<!DOCTYPE svg PUBLIC "-//W3C//DTD SVG 1.1//EN"
  "http://www.w3.org/Graphics/SVG/1.1/DTD/svg11.dtd">
<svg xmlns:xlink="http://www.w3.org/1999/xlink" width="576pt" height="576pt" viewBox="0 0 576 576" xmlns="http://www.w3.org/2000/svg" version="1.1">
 <metadata>
  <rdf:RDF xmlns:dc="http://purl.org/dc/elements/1.1/" xmlns:cc="http://creativecommons.org/ns#" xmlns:rdf="http://www.w3.org/1999/02/22-rdf-syntax-ns#">
   <cc:Work>
    <dc:type rdf:resource="http://purl.org/dc/dcmitype/StillImage"/>
    <dc:date>2023-10-29T02:30:22.922004</dc:date>
    <dc:format>image/svg+xml</dc:format>
    <dc:creator>
     <cc:Agent>
      <dc:title>Matplotlib v3.8.0, https://matplotlib.org/</dc:title>
     </cc:Agent>
    </dc:creator>
   </cc:Work>
  </rdf:RDF>
 </metadata>
 <defs>
  <style type="text/css">*{stroke-linejoin: round; stroke-linecap: butt}</style>
 </defs>
 <g id="figure_1">
  <g id="axes_1">
   <g id="PathCollection_1">
    <defs>
     <path id="C0_0_503b8ce9c9" d="M 0 0 
C 0 0 0 0 0 0 
C 0 0 0 0 0 -0 
C 0 -0 0 -0 0 -0 
C 0 -0 0 -0 0 -0 
C 0 0 0 0 0 0 
C 0 0 0 0 0 0 
C 0 0 0 0 0 0 
C 0 0 0 0 0 0 
z
"/>
    </defs>
    <g clip-path="url(#p880743a46f)">
     <use xlink:href="#C0_0_503b8ce9c9" x="222.892547" y="326.857651" style="fill: #ff0000; fill-opacity: 0.5"/>
    </g>
    <g clip-path="url(#p880743a46f)">
     <use xlink:href="#C0_0_503b8ce9c9" x="255.184077" y="358.597158" style="fill: #ff0000; fill-opacity: 0.5"/>
    </g>
   </g>
   <g id="line2d_1">
    <path d="M 222.892547 326.857651 
L 226.592038 327.780668 
L 232.757258 328.860552 
L 238.46094 329.785843 
L 252.334032 337.492807 
L 253.716851 339.122864 
L 253.957498 340.927976 
L 253.476205 346.902579 
L 255.184077 358.597158 
" clip-path="url(#p880743a46f)" style="fill: none; stroke: #ff0000; stroke-opacity: 0.5; stroke-width: 4; stroke-linecap: square"/>
   </g>
  </g>
 </g>
 <defs>
  <clipPath id="p880743a46f">
   <rect x="0" y="85.281828" width="576" height="405.436345"/>
  </clipPath>
 </defs>
</svg>
