<?xml version="1.0" encoding="utf-8" standalone="no"?>
<!DOCTYPE svg PUBLIC "-//W3C//DTD SVG 1.1//EN"
  "http://www.w3.org/Graphics/SVG/1.1/DTD/svg11.dtd">
<svg xmlns:xlink="http://www.w3.org/1999/xlink" width="576pt" height="576pt" viewBox="0 0 576 576" xmlns="http://www.w3.org/2000/svg" version="1.1">
 <metadata>
  <rdf:RDF xmlns:dc="http://purl.org/dc/elements/1.1/" xmlns:cc="http://creativecommons.org/ns#" xmlns:rdf="http://www.w3.org/1999/02/22-rdf-syntax-ns#">
   <cc:Work>
    <dc:type rdf:resource="http://purl.org/dc/dcmitype/StillImage"/>
    <dc:date>2023-10-29T02:30:19.801029</dc:date>
    <dc:format>image/svg+xml</dc:format>
    <dc:creator>
     <cc:Agent>
      <dc:title>Matplotlib v3.8.0, https://matplotlib.org/</dc:title>
     </cc:Agent>
    </dc:creator>
   </cc:Work>
  </rdf:RDF>
 </metadata>
 <defs>
  <style type="text/css">*{stroke-linejoin: round; stroke-linecap: butt}</style>
 </defs>
 <g id="figure_1">
  <g id="axes_1">
   <g id="PathCollection_1">
    <defs>
     <path id="C0_0_c80602bead" d="M 0 0 
C 0 0 0 0 0 0 
C 0 0 0 0 0 -0 
C 0 -0 0 -0 0 -0 
C 0 -0 0 -0 0 -0 
C 0 0 0 0 0 0 
C 0 0 0 0 0 0 
C 0 0 0 0 0 0 
C 0 0 0 0 0 0 
z
"/>
    </defs>
    <g clip-path="url(#pedf61c1831)">
     <use xlink:href="#C0_0_c80602bead" x="343.077522" y="255.489796" style="fill: #ff0000; fill-opacity: 0.5"/>
    </g>
    <g clip-path="url(#pedf61c1831)">
     <use xlink:href="#C0_0_c80602bead" x="351.897037" y="262.455619" style="fill: #ff0000; fill-opacity: 0.5"/>
    </g>
   </g>
   <g id="line2d_1">
    <path d="M 343.077522 255.489796 
L 344.413649 256.080891 
L 346.187968 256.994814 
L 346.507632 257.158502 
L 348.835079 258.784012 
L 350.959593 261.127929 
L 351.897037 262.455619 
" clip-path="url(#pedf61c1831)" style="fill: none; stroke: #ff0000; stroke-opacity: 0.5; stroke-width: 4; stroke-linecap: square"/>
   </g>
  </g>
 </g>
 <defs>
  <clipPath id="pedf61c1831">
   <rect x="0" y="85.281828" width="576" height="405.436345"/>
  </clipPath>
 </defs>
</svg>
