<?xml version="1.0" encoding="utf-8" standalone="no"?>
<!DOCTYPE svg PUBLIC "-//W3C//DTD SVG 1.1//EN"
  "http://www.w3.org/Graphics/SVG/1.1/DTD/svg11.dtd">
<svg xmlns:xlink="http://www.w3.org/1999/xlink" width="576pt" height="576pt" viewBox="0 0 576 576" xmlns="http://www.w3.org/2000/svg" version="1.1">
 <metadata>
  <rdf:RDF xmlns:dc="http://purl.org/dc/elements/1.1/" xmlns:cc="http://creativecommons.org/ns#" xmlns:rdf="http://www.w3.org/1999/02/22-rdf-syntax-ns#">
   <cc:Work>
    <dc:type rdf:resource="http://purl.org/dc/dcmitype/StillImage"/>
    <dc:date>2023-10-29T02:30:20.767666</dc:date>
    <dc:format>image/svg+xml</dc:format>
    <dc:creator>
     <cc:Agent>
      <dc:title>Matplotlib v3.8.0, https://matplotlib.org/</dc:title>
     </cc:Agent>
    </dc:creator>
   </cc:Work>
  </rdf:RDF>
 </metadata>
 <defs>
  <style type="text/css">*{stroke-linejoin: round; stroke-linecap: butt}</style>
 </defs>
 <g id="figure_1">
  <g id="axes_1">
   <g id="PathCollection_1">
    <defs>
     <path id="C0_0_21e9059d48" d="M 0 0 
C 0 0 0 0 0 0 
C 0 0 0 0 0 -0 
C 0 -0 0 -0 0 -0 
C 0 -0 0 -0 0 -0 
C 0 0 0 0 0 0 
C 0 0 0 0 0 0 
C 0 0 0 0 0 0 
C 0 0 0 0 0 0 
z
"/>
    </defs>
    <g clip-path="url(#pe04b37a8f4)">
     <use xlink:href="#C0_0_21e9059d48" x="318.808141" y="127.013108" style="fill: #ff0000; fill-opacity: 0.5"/>
    </g>
    <g clip-path="url(#pe04b37a8f4)">
     <use xlink:href="#C0_0_21e9059d48" x="351.031428" y="124.164486" style="fill: #ff0000; fill-opacity: 0.5"/>
    </g>
   </g>
   <g id="line2d_1">
    <path d="M 318.808141 127.013108 
L 320.639928 126.146927 
L 322.606405 126.099184 
L 324.325052 126.290153 
L 325.865908 126.867607 
L 327.263095 127.638304 
L 329.296019 129.222892 
L 332.106555 133.367375 
L 333.776714 135.686284 
L 334.674648 136.609301 
L 335.967674 137.300427 
L 337.610895 137.643717 
L 339.327746 137.591428 
L 340.97815 136.813911 
L 342.271176 135.734027 
L 343.079318 134.429072 
L 343.573182 132.785374 
L 343.977252 131.196239 
L 344.893146 129.318377 
L 346.159234 127.874742 
L 347.640826 126.612982 
L 351.031428 124.164486 
" clip-path="url(#pe04b37a8f4)" style="fill: none; stroke: #ff0000; stroke-opacity: 0.5; stroke-width: 4; stroke-linecap: square"/>
   </g>
  </g>
 </g>
 <defs>
  <clipPath id="pe04b37a8f4">
   <rect x="0" y="85.281828" width="576" height="405.436345"/>
  </clipPath>
 </defs>
</svg>
