<?xml version="1.0" encoding="utf-8" standalone="no"?>
<!DOCTYPE svg PUBLIC "-//W3C//DTD SVG 1.1//EN"
  "http://www.w3.org/Graphics/SVG/1.1/DTD/svg11.dtd">
<svg xmlns:xlink="http://www.w3.org/1999/xlink" width="576pt" height="576pt" viewBox="0 0 576 576" xmlns="http://www.w3.org/2000/svg" version="1.1">
 <metadata>
  <rdf:RDF xmlns:dc="http://purl.org/dc/elements/1.1/" xmlns:cc="http://creativecommons.org/ns#" xmlns:rdf="http://www.w3.org/1999/02/22-rdf-syntax-ns#">
   <cc:Work>
    <dc:type rdf:resource="http://purl.org/dc/dcmitype/StillImage"/>
    <dc:date>2023-10-29T02:30:33.025664</dc:date>
    <dc:format>image/svg+xml</dc:format>
    <dc:creator>
     <cc:Agent>
      <dc:title>Matplotlib v3.8.0, https://matplotlib.org/</dc:title>
     </cc:Agent>
    </dc:creator>
   </cc:Work>
  </rdf:RDF>
 </metadata>
 <defs>
  <style type="text/css">*{stroke-linejoin: round; stroke-linecap: butt}</style>
 </defs>
 <g id="figure_1">
  <g id="axes_1">
   <g id="PathCollection_1">
    <defs>
     <path id="C0_0_15f393804f" d="M 0 0 
C 0 0 0 0 0 0 
C 0 0 0 0 0 -0 
C 0 -0 0 -0 0 -0 
C 0 -0 0 -0 0 -0 
C 0 0 0 0 0 0 
C 0 0 0 0 0 0 
C 0 0 0 0 0 0 
C 0 0 0 0 0 0 
z
"/>
    </defs>
    <g clip-path="url(#p71a04cb1df)">
     <use xlink:href="#C0_0_15f393804f" x="425.89584" y="208.527329" style="fill: #ff0000; fill-opacity: 0.5"/>
    </g>
    <g clip-path="url(#p71a04cb1df)">
     <use xlink:href="#C0_0_15f393804f" x="443.815025" y="221.388183" style="fill: #ff0000; fill-opacity: 0.5"/>
    </g>
   </g>
   <g id="line2d_1">
    <path d="M 425.89584 208.527329 
L 433.000299 204.289635 
L 434.950614 202.459515 
L 435.98683 201.277326 
L 437.552828 199.665456 
L 439.695301 198.365048 
L 442.128704 197.039632 
L 443.766537 196.196186 
L 445.138581 194.968528 
L 446.535768 194.486558 
L 448.31727 194.463824 
L 450.123915 194.873043 
L 451.472613 195.811974 
L 452.363364 197.112382 
L 452.966776 198.82201 
L 452.605807 204.239619 
L 452.331039 206.435763 
L 451.666567 208.26361 
L 450.635738 210.134651 
L 446.366956 214.306415 
L 445.427716 216.113801 
L 444.585453 218.209913 
L 443.815025 221.388183 
" clip-path="url(#p71a04cb1df)" style="fill: none; stroke: #ff0000; stroke-opacity: 0.5; stroke-width: 4; stroke-linecap: square"/>
   </g>
  </g>
 </g>
 <defs>
  <clipPath id="p71a04cb1df">
   <rect x="0" y="85.281828" width="576" height="405.436345"/>
  </clipPath>
 </defs>
</svg>
