<?xml version="1.0" encoding="utf-8" standalone="no"?>
<!DOCTYPE svg PUBLIC "-//W3C//DTD SVG 1.1//EN"
  "http://www.w3.org/Graphics/SVG/1.1/DTD/svg11.dtd">
<svg xmlns:xlink="http://www.w3.org/1999/xlink" width="576pt" height="576pt" viewBox="0 0 576 576" xmlns="http://www.w3.org/2000/svg" version="1.1">
 <metadata>
  <rdf:RDF xmlns:dc="http://purl.org/dc/elements/1.1/" xmlns:cc="http://creativecommons.org/ns#" xmlns:rdf="http://www.w3.org/1999/02/22-rdf-syntax-ns#">
   <cc:Work>
    <dc:type rdf:resource="http://purl.org/dc/dcmitype/StillImage"/>
    <dc:date>2023-10-29T02:30:28.265156</dc:date>
    <dc:format>image/svg+xml</dc:format>
    <dc:creator>
     <cc:Agent>
      <dc:title>Matplotlib v3.8.0, https://matplotlib.org/</dc:title>
     </cc:Agent>
    </dc:creator>
   </cc:Work>
  </rdf:RDF>
 </metadata>
 <defs>
  <style type="text/css">*{stroke-linejoin: round; stroke-linecap: butt}</style>
 </defs>
 <g id="figure_1">
  <g id="axes_1">
   <g id="PathCollection_1">
    <defs>
     <path id="C0_0_464411fc38" d="M 0 0 
C 0 0 0 0 0 0 
C 0 0 0 0 0 -0 
C 0 -0 0 -0 0 -0 
C 0 -0 0 -0 0 -0 
C 0 0 0 0 0 0 
C 0 0 0 0 0 0 
C 0 0 0 0 0 0 
C 0 0 0 0 0 0 
z
"/>
    </defs>
    <g clip-path="url(#pa4a59ee9dd)">
     <use xlink:href="#C0_0_464411fc38" x="305.15235" y="82.096737" style="fill: #ff0000; fill-opacity: 0.5"/>
    </g>
    <g clip-path="url(#pa4a59ee9dd)">
     <use xlink:href="#C0_0_464411fc38" x="305.77372" y="85.643305" style="fill: #ff0000; fill-opacity: 0.5"/>
    </g>
   </g>
   <g id="line2d_1">
    <path d="M 305.15235 82.096737 
L 304.572284 82.267245 
L 304.082011 82.624175 
L 303.737204 83.122059 
L 303.579168 83.706333 
L 303.624065 84.311068 
L 303.868303 84.865788 
L 304.283149 85.306835 
L 304.820114 85.584195 
L 305.419934 85.668312 
L 305.77372 85.643305 
" clip-path="url(#pa4a59ee9dd)" style="fill: none; stroke: #ff0000; stroke-opacity: 0.5; stroke-width: 4; stroke-linecap: square"/>
   </g>
  </g>
 </g>
 <defs>
  <clipPath id="pa4a59ee9dd">
   <rect x="0" y="85.281828" width="576" height="405.436345"/>
  </clipPath>
 </defs>
</svg>
