<?xml version="1.0" encoding="utf-8" standalone="no"?>
<!DOCTYPE svg PUBLIC "-//W3C//DTD SVG 1.1//EN"
  "http://www.w3.org/Graphics/SVG/1.1/DTD/svg11.dtd">
<svg xmlns:xlink="http://www.w3.org/1999/xlink" width="576pt" height="576pt" viewBox="0 0 576 576" xmlns="http://www.w3.org/2000/svg" version="1.1">
 <metadata>
  <rdf:RDF xmlns:dc="http://purl.org/dc/elements/1.1/" xmlns:cc="http://creativecommons.org/ns#" xmlns:rdf="http://www.w3.org/1999/02/22-rdf-syntax-ns#">
   <cc:Work>
    <dc:type rdf:resource="http://purl.org/dc/dcmitype/StillImage"/>
    <dc:date>2023-10-29T02:30:35.821255</dc:date>
    <dc:format>image/svg+xml</dc:format>
    <dc:creator>
     <cc:Agent>
      <dc:title>Matplotlib v3.8.0, https://matplotlib.org/</dc:title>
     </cc:Agent>
    </dc:creator>
   </cc:Work>
  </rdf:RDF>
 </metadata>
 <defs>
  <style type="text/css">*{stroke-linejoin: round; stroke-linecap: butt}</style>
 </defs>
 <g id="figure_1">
  <g id="axes_1">
   <g id="PathCollection_1">
    <defs>
     <path id="C0_0_1db464cfe9" d="M 0 0 
C 0 0 0 0 0 0 
C 0 0 0 0 0 -0 
C 0 -0 0 -0 0 -0 
C 0 -0 0 -0 0 -0 
C 0 0 0 0 0 0 
C 0 0 0 0 0 0 
C 0 0 0 0 0 0 
C 0 0 0 0 0 0 
z
"/>
    </defs>
    <g clip-path="url(#p0d3feabb26)">
     <use xlink:href="#C0_0_1db464cfe9" x="482.377731" y="296.570872" style="fill: #ff0000; fill-opacity: 0.5"/>
    </g>
    <g clip-path="url(#p0d3feabb26)">
     <use xlink:href="#C0_0_1db464cfe9" x="488.113738" y="218.284937" style="fill: #ff0000; fill-opacity: 0.5"/>
    </g>
   </g>
   <g id="line2d_1">
    <path d="M 482.377731 296.570872 
L 483.3044 295.929762 
L 488.981143 292.01035 
L 491.084107 289.677799 
L 494.221491 284.573925 
L 494.866208 282.771086 
L 496.107154 274.873153 
L 495.798264 272.713384 
L 494.754864 268.75987 
L 493.467225 264.897294 
L 490.683628 257.961026 
L 485.163125 249.285576 
L 483.00449 245.586688 
L 482.079617 239.573437 
L 482.234062 237.879723 
L 483.929362 230.943455 
L 485.163125 226.626191 
L 486.549536 223.236491 
L 488.113738 218.284937 
" clip-path="url(#p0d3feabb26)" style="fill: none; stroke: #ff0000; stroke-opacity: 0.5; stroke-width: 4; stroke-linecap: square"/>
   </g>
  </g>
 </g>
 <defs>
  <clipPath id="p0d3feabb26">
   <rect x="0" y="85.281828" width="576" height="405.436345"/>
  </clipPath>
 </defs>
</svg>
