<?xml version="1.0" encoding="utf-8" standalone="no"?>
<!DOCTYPE svg PUBLIC "-//W3C//DTD SVG 1.1//EN"
  "http://www.w3.org/Graphics/SVG/1.1/DTD/svg11.dtd">
<svg xmlns:xlink="http://www.w3.org/1999/xlink" width="576pt" height="576pt" viewBox="0 0 576 576" xmlns="http://www.w3.org/2000/svg" version="1.1">
 <metadata>
  <rdf:RDF xmlns:dc="http://purl.org/dc/elements/1.1/" xmlns:cc="http://creativecommons.org/ns#" xmlns:rdf="http://www.w3.org/1999/02/22-rdf-syntax-ns#">
   <cc:Work>
    <dc:type rdf:resource="http://purl.org/dc/dcmitype/StillImage"/>
    <dc:date>2023-10-29T02:30:33.725804</dc:date>
    <dc:format>image/svg+xml</dc:format>
    <dc:creator>
     <cc:Agent>
      <dc:title>Matplotlib v3.8.0, https://matplotlib.org/</dc:title>
     </cc:Agent>
    </dc:creator>
   </cc:Work>
  </rdf:RDF>
 </metadata>
 <defs>
  <style type="text/css">*{stroke-linejoin: round; stroke-linecap: butt}</style>
 </defs>
 <g id="figure_1">
  <g id="axes_1">
   <g id="PathCollection_1">
    <defs>
     <path id="C0_0_f2450eb527" d="M 0 0 
C 0 0 0 0 0 0 
C 0 0 0 0 0 -0 
C 0 -0 0 -0 0 -0 
C 0 -0 0 -0 0 -0 
C 0 0 0 0 0 0 
C 0 0 0 0 0 0 
C 0 0 0 0 0 0 
C 0 0 0 0 0 0 
z
"/>
    </defs>
    <g clip-path="url(#pa0571eb8bb)">
     <use xlink:href="#C0_0_f2450eb527" x="476.77821" y="358.178845" style="fill: #ff0000; fill-opacity: 0.5"/>
    </g>
    <g clip-path="url(#pa0571eb8bb)">
     <use xlink:href="#C0_0_f2450eb527" x="509.518707" y="366.522373" style="fill: #ff0000; fill-opacity: 0.5"/>
    </g>
   </g>
   <g id="line2d_1">
    <path d="M 476.77821 358.178845 
L 479.168512 359.552003 
L 481.467225 361.382123 
L 482.573481 362.812118 
L 482.844657 364.269393 
L 482.521401 368.836736 
L 482.828494 371.867232 
L 483.76953 374.338463 
L 485.509728 377.398514 
L 488.185573 380.376721 
L 489.968872 381.295192 
L 491.97845 381.536176 
L 493.355881 381.390676 
L 495.433702 380.238042 
L 498.305298 376.89381 
L 501.512721 373.192648 
L 504.542353 369.996191 
L 506.977552 367.768219 
L 509.518707 366.522373 
" clip-path="url(#pa0571eb8bb)" style="fill: none; stroke: #ff0000; stroke-opacity: 0.5; stroke-width: 4; stroke-linecap: square"/>
   </g>
  </g>
 </g>
 <defs>
  <clipPath id="pa0571eb8bb">
   <rect x="0" y="85.281828" width="576" height="405.436345"/>
  </clipPath>
 </defs>
</svg>
