<?xml version="1.0" encoding="utf-8" standalone="no"?>
<!DOCTYPE svg PUBLIC "-//W3C//DTD SVG 1.1//EN"
  "http://www.w3.org/Graphics/SVG/1.1/DTD/svg11.dtd">
<svg xmlns:xlink="http://www.w3.org/1999/xlink" width="576pt" height="576pt" viewBox="0 0 576 576" xmlns="http://www.w3.org/2000/svg" version="1.1">
 <metadata>
  <rdf:RDF xmlns:dc="http://purl.org/dc/elements/1.1/" xmlns:cc="http://creativecommons.org/ns#" xmlns:rdf="http://www.w3.org/1999/02/22-rdf-syntax-ns#">
   <cc:Work>
    <dc:type rdf:resource="http://purl.org/dc/dcmitype/StillImage"/>
    <dc:date>2023-10-29T02:30:39.077595</dc:date>
    <dc:format>image/svg+xml</dc:format>
    <dc:creator>
     <cc:Agent>
      <dc:title>Matplotlib v3.8.0, https://matplotlib.org/</dc:title>
     </cc:Agent>
    </dc:creator>
   </cc:Work>
  </rdf:RDF>
 </metadata>
 <defs>
  <style type="text/css">*{stroke-linejoin: round; stroke-linecap: butt}</style>
 </defs>
 <g id="figure_1">
  <g id="axes_1">
   <g id="PathCollection_1">
    <defs>
     <path id="C0_0_a6c1256c10" d="M 0 0 
C 0 0 0 0 0 0 
C 0 0 0 0 0 -0 
C 0 -0 0 -0 0 -0 
C 0 -0 0 -0 0 -0 
C 0 0 0 0 0 0 
C 0 0 0 0 0 0 
C 0 0 0 0 0 0 
C 0 0 0 0 0 0 
z
"/>
    </defs>
    <g clip-path="url(#p13bfc9a018)">
     <use xlink:href="#C0_0_a6c1256c10" x="528.835079" y="438.549526" style="fill: #ff0000; fill-opacity: 0.5"/>
    </g>
    <g clip-path="url(#p13bfc9a018)">
     <use xlink:href="#C0_0_a6c1256c10" x="563.962287" y="464.223493" style="fill: #ff0000; fill-opacity: 0.5"/>
    </g>
   </g>
   <g id="line2d_1">
    <path d="M 528.835079 438.549526 
L 530.304101 439.947692 
L 531.268482 441.898304 
L 532.015564 444.283143 
L 532.259802 446.711178 
L 532.360371 448.58904 
L 532.644119 450.121339 
L 533.22598 451.242146 
L 534.233463 452.30839 
L 534.865609 452.838101 
L 537.275666 454.468158 
L 539.468423 455.397996 
L 541.980844 455.757199 
L 543.940138 455.47984 
L 546.077222 454.511354 
L 547.607303 453.120008 
L 549.162526 452.015116 
L 550.800359 451.533146 
L 552.763245 451.367185 
L 555.211015 451.999202 
L 557.394792 453.44511 
L 558.788387 455.325246 
L 559.73481 458.253437 
L 560.42622 460.865621 
L 561.196648 462.093279 
L 562.417839 463.343671 
L 563.459443 463.937039 
L 563.962287 464.223493 
" clip-path="url(#p13bfc9a018)" style="fill: none; stroke: #ff0000; stroke-opacity: 0.5; stroke-width: 4; stroke-linecap: square"/>
   </g>
  </g>
 </g>
 <defs>
  <clipPath id="p13bfc9a018">
   <rect x="0" y="85.281828" width="576" height="405.436345"/>
  </clipPath>
 </defs>
</svg>
