<?xml version="1.0" encoding="utf-8" standalone="no"?>
<!DOCTYPE svg PUBLIC "-//W3C//DTD SVG 1.1//EN"
  "http://www.w3.org/Graphics/SVG/1.1/DTD/svg11.dtd">
<svg xmlns:xlink="http://www.w3.org/1999/xlink" width="576pt" height="576pt" viewBox="0 0 576 576" xmlns="http://www.w3.org/2000/svg" version="1.1">
 <metadata>
  <rdf:RDF xmlns:dc="http://purl.org/dc/elements/1.1/" xmlns:cc="http://creativecommons.org/ns#" xmlns:rdf="http://www.w3.org/1999/02/22-rdf-syntax-ns#">
   <cc:Work>
    <dc:type rdf:resource="http://purl.org/dc/dcmitype/StillImage"/>
    <dc:date>2023-10-29T02:30:05.597508</dc:date>
    <dc:format>image/svg+xml</dc:format>
    <dc:creator>
     <cc:Agent>
      <dc:title>Matplotlib v3.8.0, https://matplotlib.org/</dc:title>
     </cc:Agent>
    </dc:creator>
   </cc:Work>
  </rdf:RDF>
 </metadata>
 <defs>
  <style type="text/css">*{stroke-linejoin: round; stroke-linecap: butt}</style>
 </defs>
 <g id="figure_1">
  <g id="axes_1">
   <g id="PathCollection_1">
    <defs>
     <path id="C0_0_4ef802d8e2" d="M 0 0 
C 0 0 0 0 0 0 
C 0 0 0 0 0 -0 
C 0 -0 0 -0 0 -0 
C 0 -0 0 -0 0 -0 
C 0 0 0 0 0 0 
C 0 0 0 0 0 0 
C 0 0 0 0 0 0 
C 0 0 0 0 0 0 
z
"/>
    </defs>
    <g clip-path="url(#pf963880afa)">
     <use xlink:href="#C0_0_4ef802d8e2" x="154.891949" y="260.871031" style="fill: #ff0000; fill-opacity: 0.5"/>
    </g>
    <g clip-path="url(#pf963880afa)">
     <use xlink:href="#C0_0_4ef802d8e2" x="151.2176" y="266.820625" style="fill: #ff0000; fill-opacity: 0.5"/>
    </g>
   </g>
   <g id="line2d_1">
    <path d="M 154.891949 260.871031 
L 153.431907 262.146431 
L 152.604011 263.174026 
L 151.973661 264.515356 
L 151.2176 266.820625 
" clip-path="url(#pf963880afa)" style="fill: none; stroke: #ff0000; stroke-opacity: 0.5; stroke-width: 4; stroke-linecap: square"/>
   </g>
  </g>
 </g>
 <defs>
  <clipPath id="pf963880afa">
   <rect x="0" y="85.281828" width="576" height="405.436345"/>
  </clipPath>
 </defs>
</svg>
