<?xml version="1.0" encoding="utf-8" standalone="no"?>
<!DOCTYPE svg PUBLIC "-//W3C//DTD SVG 1.1//EN"
  "http://www.w3.org/Graphics/SVG/1.1/DTD/svg11.dtd">
<svg xmlns:xlink="http://www.w3.org/1999/xlink" width="576pt" height="576pt" viewBox="0 0 576 576" xmlns="http://www.w3.org/2000/svg" version="1.1">
 <metadata>
  <rdf:RDF xmlns:dc="http://purl.org/dc/elements/1.1/" xmlns:cc="http://creativecommons.org/ns#" xmlns:rdf="http://www.w3.org/1999/02/22-rdf-syntax-ns#">
   <cc:Work>
    <dc:type rdf:resource="http://purl.org/dc/dcmitype/StillImage"/>
    <dc:date>2023-10-29T02:29:52.739410</dc:date>
    <dc:format>image/svg+xml</dc:format>
    <dc:creator>
     <cc:Agent>
      <dc:title>Matplotlib v3.8.0, https://matplotlib.org/</dc:title>
     </cc:Agent>
    </dc:creator>
   </cc:Work>
  </rdf:RDF>
 </metadata>
 <defs>
  <style type="text/css">*{stroke-linejoin: round; stroke-linecap: butt}</style>
 </defs>
 <g id="figure_1">
  <g id="axes_1">
   <g id="PathCollection_1">
    <defs>
     <path id="C0_0_480af858a1" d="M 0 0 
C 0 0 0 0 0 0 
C 0 0 0 0 0 -0 
C 0 -0 0 -0 0 -0 
C 0 -0 0 -0 0 -0 
C 0 0 0 0 0 0 
C 0 0 0 0 0 0 
C 0 0 0 0 0 0 
C 0 0 0 0 0 0 
z
"/>
    </defs>
    <g clip-path="url(#p5fb9dc4be4)">
     <use xlink:href="#C0_0_480af858a1" x="34.471715" y="117.014515" style="fill: #ff0000; fill-opacity: 0.5"/>
    </g>
    <g clip-path="url(#p5fb9dc4be4)">
     <use xlink:href="#C0_0_480af858a1" x="562.024544" y="477.004777" style="fill: #ff0000; fill-opacity: 0.5"/>
    </g>
   </g>
   <g id="line2d_1">
    <path d="M 34.471715 117.014515 
L 38.620174 113.743033 
L 39.764142 111.631007 
L 39.764142 111.631007 
L 41.328345 113.25197 
L 43.689913 114.843379 
L 45.839569 116.664405 
L 45.839569 116.664405 
L 46.541754 118.171696 
L 47.998204 120.206426 
L 47.998204 120.206426 
L 48.46513 122.172952 
L 48.790183 124.353182 
L 48.928465 136.125058 
L 49.495959 140.430955 
L 50.638132 145.291572 
L 52.938641 152.771192 
L 56.401078 162.160503 
L 60.52619 172.441002 
L 61.664771 176.474086 
L 65.028435 189.644129 
L 65.351691 191.867554 
L 65.351691 191.867554 
L 63.462436 199.976918 
L 63.462436 199.976918 
L 60.808141 209.700424 
L 60.808141 209.700424 
L 69.473212 212.71728 
L 94.423227 221.608707 
L 94.583059 221.688278 
L 96.127507 222.968225 
L 96.127507 222.968225 
L 108.511823 218.253109 
L 138.280156 205.335418 
L 138.280156 205.335418 
L 160.511224 195.675568 
L 178.223885 188.236869 
L 196.953008 180.07067 
L 219.683328 169.99478 
L 243.392397 159.621069 
L 243.392397 159.621069 
L 258.479497 193.975034 
L 259.826399 196.973702 
L 260.957797 198.635588 
L 262.015564 199.492675 
L 262.922478 200.020113 
L 265.388207 201.152287 
L 267.209219 201.58424 
L 268.337025 201.718373 
L 268.337025 201.718373 
L 269.793475 201.659264 
L 272.277163 201.113638 
L 275.249327 199.929175 
L 277.011075 199.04026 
L 280.76085 196.623592 
L 281.236755 196.309858 
L 286.37833 195.727857 
L 286.37833 195.727857 
L 287.703682 197.942188 
L 295.828195 210.855332 
L 297.295421 212.574053 
L 298.802155 213.849454 
L 304.225681 217.950741 
L 304.732116 218.926047 
L 304.918887 220.185533 
L 304.918887 220.185533 
L 304.992517 225.207564 
L 304.882969 241.171666 
L 304.245435 256.506024 
L 304.148459 301.104113 
L 304.148459 301.104113 
L 321.379826 301.258707 
L 321.379826 301.258707 
L 365.472014 301.301902 
L 379.264292 301.18823 
L 381.35648 301.133668 
L 381.35648 301.133668 
L 381.483987 305.62144 
L 381.507333 327.335073 
L 381.507333 327.335073 
L 383.434301 328.603653 
L 391.082909 334.207685 
L 405.503741 345.363459 
L 413.181084 351.456281 
L 415.108051 352.370204 
L 417.541455 353.238658 
L 420.845855 353.70244 
L 426.114936 353.70926 
L 427.71326 353.597862 
L 429.920383 353.322776 
L 431.658785 352.984033 
L 431.658785 352.984033 
L 433.653996 352.395212 
L 435.363664 351.745008 
L 438.998503 349.88306 
L 442.211314 347.896072 
L 442.211314 347.896072 
L 457.0434 337.017658 
L 459.245136 335.287569 
L 459.245136 335.287569 
L 460.538162 337.017658 
L 461.836576 339.072848 
L 463.876684 343.872082 
L 465.509129 347.21404 
L 468.917689 351.954164 
L 474.179587 356.826148 
L 476.77821 358.178845 
L 476.77821 358.178845 
L 479.168512 359.552003 
L 481.467225 361.382123 
L 482.573481 362.812118 
L 482.844657 364.269393 
L 482.521401 368.836736 
L 482.828494 371.867232 
L 483.76953 374.338463 
L 485.509728 377.398514 
L 488.185573 380.376721 
L 489.968872 381.295192 
L 491.97845 381.536176 
L 493.355881 381.390676 
L 495.433702 380.238042 
L 501.512721 373.192648 
L 504.542353 369.996191 
L 506.977552 367.768219 
L 509.518707 366.522373 
L 509.518707 366.522373 
L 511.546244 367.288523 
L 512.866208 368.895845 
L 513.286441 370.164425 
L 513.214606 371.992272 
L 512.548339 374.122486 
L 504.220892 392.034926 
L 503.389404 394.528891 
L 502.944029 397.034223 
L 502.949416 401.221901 
L 502.949416 401.221901 
L 502.79138 402.383629 
L 502.532775 403.420318 
L 501.950913 404.463827 
L 501.166118 405.114031 
L 501.166118 405.114031 
L 499.470817 405.805157 
L 494.31308 407.262433 
L 492.987728 407.869442 
L 491.876085 408.683333 
L 491.026639 409.724569 
L 489.708471 411.922987 
L 487.082909 418.704661 
L 486.549536 421.430516 
L 486.6088 423.70623 
L 487.29123 425.80689 
L 488.298713 427.302814 
L 489.620473 428.548659 
L 489.620473 428.548659 
L 491.574379 429.560341 
L 493.646812 429.808146 
L 495.501946 429.75813 
L 497.572583 429.228418 
L 499.235558 428.337229 
L 501.137384 427.471048 
L 501.137384 427.471048 
L 502.439389 427.350556 
L 503.908411 427.546072 
L 505.618078 428.14626 
L 507.351092 428.362237 
L 509.567195 428.096245 
L 511.565998 427.446041 
L 513.180485 426.602594 
L 514.480694 425.352202 
L 515.468423 424.170012 
L 517.17809 421.207719 
L 518.189165 420.196038 
L 519.176893 419.691334 
L 520.284945 419.498091 
L 521.479198 419.52992 
L 522.958994 420.100553 
L 522.958994 420.100553 
L 524.740497 421.616938 
L 524.740497 421.616938 
L 525.149955 422.990097 
L 525.198444 424.629247 
L 525.198444 430.265107 
L 525.318767 431.901985 
L 525.318767 431.901985 
L 526.884765 435.178013 
L 528.835079 438.549526 
L 528.835079 438.549526 
L 530.304101 439.947692 
L 531.268482 441.898304 
L 532.015564 444.283143 
L 532.644119 450.121339 
L 533.22598 451.242146 
L 534.865609 452.838101 
L 537.275666 454.468158 
L 539.468423 455.397996 
L 541.980844 455.757199 
L 543.940138 455.47984 
L 546.077222 454.511354 
L 547.607303 453.120008 
L 549.162526 452.015116 
L 550.800359 451.533146 
L 552.763245 451.367185 
L 555.211015 451.999202 
L 557.394792 453.44511 
L 558.788387 455.325246 
L 559.73481 458.253437 
L 560.42622 460.865621 
L 561.196648 462.093279 
L 562.417839 463.343671 
L 563.962287 464.223493 
L 563.962287 464.223493 
L 564.587249 466.744739 
L 564.52619 468.377069 
L 564.770428 471.400746 
L 564.770428 471.400746 
L 562.024544 477.004777 
L 562.024544 477.004777 
" clip-path="url(#p5fb9dc4be4)" style="fill: none; stroke: #ff0000; stroke-opacity: 0.5; stroke-width: 4; stroke-linecap: square"/>
   </g>
  </g>
 </g>
 <defs>
  <clipPath id="p5fb9dc4be4">
   <rect x="0" y="85.281828" width="576" height="405.436345"/>
  </clipPath>
 </defs>
</svg>
